<svg xmlns="http://www.w3.org/2000/svg" width="180mm" height="92mm" viewBox="0 0 180 92">
<rect width="180" height="92" fill="#FFFFFF"/>
<rect x="52" y="8" width="120" height="15" fill="#EEF3F5" rx="1"/>
<text x="62.00" y="13.20" font-family="Helvetica,Arial,sans-serif" font-size="4.2" fill="#002C6A" font-weight="bold" text-anchor="middle">0</text>
<text x="62.00" y="17.40" font-family="Helvetica,Arial,sans-serif" font-size="2.3" fill="#595959" font-weight="normal" text-anchor="middle">Strategic</text>
<text x="62.00" y="20.50" font-family="Helvetica,Arial,sans-serif" font-size="2.3" fill="#595959" font-weight="normal" text-anchor="middle">definition</text>
<path d="M 72 8 L 72 23" stroke="#FFFFFF" stroke-width="0.5"/>
<text x="82.00" y="13.20" font-family="Helvetica,Arial,sans-serif" font-size="4.2" fill="#002C6A" font-weight="bold" text-anchor="middle">1</text>
<text x="82.00" y="17.40" font-family="Helvetica,Arial,sans-serif" font-size="2.3" fill="#595959" font-weight="normal" text-anchor="middle">Preparation</text>
<text x="82.00" y="20.50" font-family="Helvetica,Arial,sans-serif" font-size="2.3" fill="#595959" font-weight="normal" text-anchor="middle">and briefing</text>
<path d="M 92 8 L 92 23" stroke="#FFFFFF" stroke-width="0.5"/>
<text x="102.00" y="13.20" font-family="Helvetica,Arial,sans-serif" font-size="4.2" fill="#002C6A" font-weight="bold" text-anchor="middle">2</text>
<text x="102.00" y="17.40" font-family="Helvetica,Arial,sans-serif" font-size="2.3" fill="#595959" font-weight="normal" text-anchor="middle">Concept</text>
<text x="102.00" y="20.50" font-family="Helvetica,Arial,sans-serif" font-size="2.3" fill="#595959" font-weight="normal" text-anchor="middle">design</text>
<path d="M 112 8 L 112 23" stroke="#FFFFFF" stroke-width="0.5"/>
<text x="122.00" y="13.20" font-family="Helvetica,Arial,sans-serif" font-size="4.2" fill="#002C6A" font-weight="bold" text-anchor="middle">3</text>
<text x="122.00" y="17.40" font-family="Helvetica,Arial,sans-serif" font-size="2.3" fill="#595959" font-weight="normal" text-anchor="middle">Spatial</text>
<text x="122.00" y="20.50" font-family="Helvetica,Arial,sans-serif" font-size="2.3" fill="#595959" font-weight="normal" text-anchor="middle">coordination</text>
<path d="M 132 8 L 132 23" stroke="#FFFFFF" stroke-width="0.5"/>
<text x="142.00" y="13.20" font-family="Helvetica,Arial,sans-serif" font-size="4.2" fill="#002C6A" font-weight="bold" text-anchor="middle">4</text>
<text x="142.00" y="17.40" font-family="Helvetica,Arial,sans-serif" font-size="2.3" fill="#595959" font-weight="normal" text-anchor="middle">Technical</text>
<text x="142.00" y="20.50" font-family="Helvetica,Arial,sans-serif" font-size="2.3" fill="#595959" font-weight="normal" text-anchor="middle">design</text>
<path d="M 152 8 L 152 23" stroke="#FFFFFF" stroke-width="0.5"/>
<text x="162.00" y="13.20" font-family="Helvetica,Arial,sans-serif" font-size="4.2" fill="#002C6A" font-weight="bold" text-anchor="middle">5</text>
<text x="162.00" y="17.40" font-family="Helvetica,Arial,sans-serif" font-size="2.3" fill="#595959" font-weight="normal" text-anchor="middle">Manufacturing</text>
<text x="162.00" y="20.50" font-family="Helvetica,Arial,sans-serif" font-size="2.3" fill="#595959" font-weight="normal" text-anchor="middle">and construction</text>
<text x="49.00" y="17.00" font-family="Helvetica,Arial,sans-serif" font-size="2.6" fill="#8C8C8C" font-weight="normal" text-anchor="end">RIBA stage</text>
<text x="172.00" y="26.40" font-family="Helvetica,Arial,sans-serif" font-size="2.2" fill="#8C8C8C" font-weight="normal" text-anchor="end">stages 6 and 7 not shown</text>
<circle cx="7" cy="32" r="2.9" fill="none" stroke="#002C6A" stroke-width="0.5"/>
<text x="7.00" y="33.05" font-family="Helvetica,Arial,sans-serif" font-size="2.9" fill="#002C6A" font-weight="bold" text-anchor="middle">1</text>
<text x="12.00" y="31.40" font-family="Helvetica,Arial,sans-serif" font-size="2.75" fill="#1A1A1A" font-weight="500" text-anchor="start">Design around stock</text>
<text x="12.00" y="35.10" font-family="Helvetica,Arial,sans-serif" font-size="2.3" fill="#8C8C8C" font-weight="normal" text-anchor="start">highest reuse, but an early freeze</text>
<path d="M 52 27.4 L 52 36.6" stroke="#E8E8E8" stroke-width="0.3"/>
<path d="M 72 27.4 L 72 36.6" stroke="#E8E8E8" stroke-width="0.3"/>
<path d="M 92 27.4 L 92 36.6" stroke="#E8E8E8" stroke-width="0.3"/>
<path d="M 112 27.4 L 112 36.6" stroke="#E8E8E8" stroke-width="0.3"/>
<path d="M 132 27.4 L 132 36.6" stroke="#E8E8E8" stroke-width="0.3"/>
<path d="M 152 27.4 L 152 36.6" stroke="#E8E8E8" stroke-width="0.3"/>
<path d="M 172 27.4 L 172 36.6" stroke="#E8E8E8" stroke-width="0.3"/>
<rect x="72" y="29.9" width="60" height="4.2" rx="1.4" fill="#002C6A"/>
<circle cx="7" cy="43" r="2.9" fill="none" stroke="#002C6A" stroke-width="0.5"/>
<text x="7.00" y="44.05" font-family="Helvetica,Arial,sans-serif" font-size="2.9" fill="#002C6A" font-weight="bold" text-anchor="middle">2</text>
<text x="12.00" y="42.40" font-family="Helvetica,Arial,sans-serif" font-size="2.75" fill="#1A1A1A" font-weight="500" text-anchor="start">Aspiration only</text>
<text x="12.00" y="46.10" font-family="Helvetica,Arial,sans-serif" font-size="2.3" fill="#8C8C8C" font-weight="normal" text-anchor="start">commits late if at all</text>
<path d="M 52 38.4 L 52 47.6" stroke="#E8E8E8" stroke-width="0.3"/>
<path d="M 72 38.4 L 72 47.6" stroke="#E8E8E8" stroke-width="0.3"/>
<path d="M 92 38.4 L 92 47.6" stroke="#E8E8E8" stroke-width="0.3"/>
<path d="M 112 38.4 L 112 47.6" stroke="#E8E8E8" stroke-width="0.3"/>
<path d="M 132 38.4 L 132 47.6" stroke="#E8E8E8" stroke-width="0.3"/>
<path d="M 152 38.4 L 152 47.6" stroke="#E8E8E8" stroke-width="0.3"/>
<path d="M 172 38.4 L 172 47.6" stroke="#E8E8E8" stroke-width="0.3"/>
<path d="M 94 43 L 131 43" stroke="#00A6D6" stroke-width="2.6" stroke-dasharray="0.1 4.2" stroke-linecap="round"/>
<rect x="132" y="40.9" width="26.0" height="4.2" rx="1.4" fill="#002C6A"/>
<circle cx="7" cy="54" r="2.9" fill="none" stroke="#002C6A" stroke-width="0.5"/>
<text x="7.00" y="55.05" font-family="Helvetica,Arial,sans-serif" font-size="2.9" fill="#002C6A" font-weight="bold" text-anchor="middle">3</text>
<text x="12.00" y="53.40" font-family="Helvetica,Arial,sans-serif" font-size="2.75" fill="#1A1A1A" font-weight="500" text-anchor="start">Late design sweep</text>
<text x="12.00" y="57.10" font-family="Helvetica,Arial,sans-serif" font-size="2.3" fill="#8C8C8C" font-weight="normal" text-anchor="start">one to ten percent, dependable</text>
<path d="M 52 49.4 L 52 58.6" stroke="#E8E8E8" stroke-width="0.3"/>
<path d="M 72 49.4 L 72 58.6" stroke="#E8E8E8" stroke-width="0.3"/>
<path d="M 92 49.4 L 92 58.6" stroke="#E8E8E8" stroke-width="0.3"/>
<path d="M 112 49.4 L 112 58.6" stroke="#E8E8E8" stroke-width="0.3"/>
<path d="M 132 49.4 L 132 58.6" stroke="#E8E8E8" stroke-width="0.3"/>
<path d="M 152 49.4 L 152 58.6" stroke="#E8E8E8" stroke-width="0.3"/>
<path d="M 172 49.4 L 172 58.6" stroke="#E8E8E8" stroke-width="0.3"/>
<rect x="132" y="51.9" width="20" height="4.2" rx="1.4" fill="#002C6A"/>
<circle cx="7" cy="65" r="2.9" fill="none" stroke="#002C6A" stroke-width="0.5"/>
<text x="7.00" y="66.05" font-family="Helvetica,Arial,sans-serif" font-size="2.9" fill="#002C6A" font-weight="bold" text-anchor="middle">4</text>
<text x="12.00" y="64.40" font-family="Helvetica,Arial,sans-serif" font-size="2.75" fill="#1A1A1A" font-weight="500" text-anchor="start">Contractor led</text>
<text x="12.00" y="68.10" font-family="Helvetica,Arial,sans-serif" font-size="2.3" fill="#8C8C8C" font-weight="normal" text-anchor="start">low and uncertain, no teeth</text>
<path d="M 52 60.4 L 52 69.6" stroke="#E8E8E8" stroke-width="0.3"/>
<path d="M 72 60.4 L 72 69.6" stroke="#E8E8E8" stroke-width="0.3"/>
<path d="M 92 60.4 L 92 69.6" stroke="#E8E8E8" stroke-width="0.3"/>
<path d="M 112 60.4 L 112 69.6" stroke="#E8E8E8" stroke-width="0.3"/>
<path d="M 132 60.4 L 132 69.6" stroke="#E8E8E8" stroke-width="0.3"/>
<path d="M 152 60.4 L 152 69.6" stroke="#E8E8E8" stroke-width="0.3"/>
<path d="M 172 60.4 L 172 69.6" stroke="#E8E8E8" stroke-width="0.3"/>
<path d="M 134 65 L 143.0 65" stroke="#00A6D6" stroke-width="2.6" stroke-dasharray="0.1 4.2" stroke-linecap="round"/>
<rect x="144.0" y="62.9" width="26.0" height="4.2" rx="1.4" fill="#002C6A"/>
<circle cx="7" cy="76" r="2.9" fill="none" stroke="#002C6A" stroke-width="0.5"/>
<text x="7.00" y="77.05" font-family="Helvetica,Arial,sans-serif" font-size="2.9" fill="#002C6A" font-weight="bold" text-anchor="middle">5</text>
<text x="12.00" y="75.40" font-family="Helvetica,Arial,sans-serif" font-size="2.75" fill="#1A1A1A" font-weight="500" text-anchor="start">Donor linked</text>
<text x="12.00" y="79.10" font-family="Helvetica,Arial,sans-serif" font-size="2.3" fill="#8C8C8C" font-weight="normal" text-anchor="start">high, but timing is the constraint</text>
<path d="M 52 71.4 L 52 80.6" stroke="#E8E8E8" stroke-width="0.3"/>
<path d="M 72 71.4 L 72 80.6" stroke="#E8E8E8" stroke-width="0.3"/>
<path d="M 92 71.4 L 92 80.6" stroke="#E8E8E8" stroke-width="0.3"/>
<path d="M 112 71.4 L 112 80.6" stroke="#E8E8E8" stroke-width="0.3"/>
<path d="M 132 71.4 L 132 80.6" stroke="#E8E8E8" stroke-width="0.3"/>
<path d="M 152 71.4 L 152 80.6" stroke="#E8E8E8" stroke-width="0.3"/>
<path d="M 172 71.4 L 172 80.6" stroke="#E8E8E8" stroke-width="0.3"/>
<rect x="52" y="73.9" width="80" height="4.2" rx="1.4" fill="#002C6A"/>
<rect x="6" y="80" width="166" height="0.3" fill="#D5D5D5"/>
<rect x="6" y="84.6" width="9" height="3.6" rx="1.2" fill="#002C6A"/>
<text x="17.00" y="87.60" font-family="Helvetica,Arial,sans-serif" font-size="2.45" fill="#595959" font-weight="normal" text-anchor="start">committed  ·  money, contract or design decision made</text>
<path d="M 96 86.4 L 105 86.4" stroke="#00A6D6" stroke-width="2.6" stroke-dasharray="0.1 4.2" stroke-linecap="round"/>
<text x="108.00" y="87.60" font-family="Helvetica,Arial,sans-serif" font-size="2.45" fill="#595959" font-weight="normal" text-anchor="start">intent only  ·  talked about, nothing binding</text>
</svg>