<svg xmlns="http://www.w3.org/2000/svg" width="180mm" height="100mm" viewBox="0 0 180 100">
<rect width="180" height="100" fill="#FFFFFF"/>
<defs>
<marker id="a-002C6A" viewBox="0 0 8 8" refX="6.5" refY="4" markerWidth="4.2" markerHeight="4.2" orient="auto"><path d="M 0 1 L 7 4 L 0 7 z" fill="#002C6A"/></marker>
<marker id="a-00A6D6" viewBox="0 0 8 8" refX="6.5" refY="4" markerWidth="4.2" markerHeight="4.2" orient="auto"><path d="M 0 1 L 7 4 L 0 7 z" fill="#00A6D6"/></marker>
<marker id="a-B5741A" viewBox="0 0 8 8" refX="6.5" refY="4" markerWidth="4.2" markerHeight="4.2" orient="auto"><path d="M 0 1 L 7 4 L 0 7 z" fill="#B5741A"/></marker>
</defs>
<rect x="8" y="46" width="22" height="17" rx="1.5" fill="#FFFFFF" stroke="#002C6A" stroke-width="0.75"/>
<text x="19.00" y="52.45" font-family="Helvetica,Arial,sans-serif" font-size="2.95" fill="#1A1A1A" font-weight="500" text-anchor="middle">Donor</text>
<text x="19.00" y="56.15" font-family="Helvetica,Arial,sans-serif" font-size="2.95" fill="#1A1A1A" font-weight="500" text-anchor="middle">building</text>
<rect x="20.20" y="58.80" width="8.2" height="3.2" rx="0.7" fill="#D6E0F0"/>
<text x="24.30" y="61.10" font-family="Helvetica,Arial,sans-serif" font-size="2.2" fill="#002C6A" font-weight="bold" text-anchor="middle">CLI</text>
<rect x="34" y="46" width="26" height="17" rx="1.5" fill="#FFFFFF" stroke="#BFBFBF" stroke-width="0.35"/>
<text x="47.00" y="52.45" font-family="Helvetica,Arial,sans-serif" font-size="2.95" fill="#1A1A1A" font-weight="500" text-anchor="middle">Demolition</text>
<text x="47.00" y="56.15" font-family="Helvetica,Arial,sans-serif" font-size="2.95" fill="#1A1A1A" font-weight="500" text-anchor="middle">contractor</text>
<rect x="50.20" y="58.80" width="8.2" height="3.2" rx="0.7" fill="#E2F0E0"/>
<text x="54.30" y="61.10" font-family="Helvetica,Arial,sans-serif" font-size="2.2" fill="#3A5E36" font-weight="bold" text-anchor="middle">DEC</text>
<rect x="64" y="46" width="24" height="17" rx="1.5" fill="#FFFFFF" stroke="#BFBFBF" stroke-width="0.35"/>
<text x="76.00" y="52.45" font-family="Helvetica,Arial,sans-serif" font-size="2.95" fill="#1A1A1A" font-weight="500" text-anchor="middle">Stockholder</text>
<text x="76.00" y="56.15" font-family="Helvetica,Arial,sans-serif" font-size="2.95" fill="#1A1A1A" font-weight="500" text-anchor="middle">and testing</text>
<rect x="78.20" y="58.80" width="8.2" height="3.2" rx="0.7" fill="#ECF2D8"/>
<text x="82.30" y="61.10" font-family="Helvetica,Arial,sans-serif" font-size="2.2" fill="#5A6B26" font-weight="bold" text-anchor="middle">SUP</text>
<rect x="104" y="46" width="22" height="17" rx="1.5" fill="#FFFFFF" stroke="#BFBFBF" stroke-width="0.35"/>
<text x="115.00" y="54.30" font-family="Helvetica,Arial,sans-serif" font-size="2.95" fill="#1A1A1A" font-weight="500" text-anchor="middle">Fabricator</text>
<rect x="116.20" y="58.80" width="8.2" height="3.2" rx="0.7" fill="#ECF2D8"/>
<text x="120.30" y="61.10" font-family="Helvetica,Arial,sans-serif" font-size="2.2" fill="#5A6B26" font-weight="bold" text-anchor="middle">SUP</text>
<rect x="130" y="46" width="24" height="17" rx="1.5" fill="#FFFFFF" stroke="#BFBFBF" stroke-width="0.35"/>
<text x="142.00" y="52.45" font-family="Helvetica,Arial,sans-serif" font-size="2.95" fill="#1A1A1A" font-weight="500" text-anchor="middle">Main</text>
<text x="142.00" y="56.15" font-family="Helvetica,Arial,sans-serif" font-size="2.95" fill="#1A1A1A" font-weight="500" text-anchor="middle">contractor</text>
<rect x="144.20" y="58.80" width="8.2" height="3.2" rx="0.7" fill="#FDEECD"/>
<text x="148.30" y="61.10" font-family="Helvetica,Arial,sans-serif" font-size="2.2" fill="#7A5410" font-weight="bold" text-anchor="middle">CON</text>
<rect x="76" y="8" width="40" height="19" rx="1.5" fill="#FFFFFF" stroke="#BFBFBF" stroke-width="0.35"/>
<text x="96.00" y="15.45" font-family="Helvetica,Arial,sans-serif" font-size="2.95" fill="#1A1A1A" font-weight="500" text-anchor="middle">Open market</text>
<text x="96.00" y="19.15" font-family="Helvetica,Arial,sans-serif" font-size="2.95" fill="#1A1A1A" font-weight="500" text-anchor="middle">weeks to years in stock</text>
<rect x="106.20" y="22.80" width="8.2" height="3.2" rx="0.7" fill="#ECF2D8"/>
<text x="110.30" y="25.10" font-family="Helvetica,Arial,sans-serif" font-size="2.2" fill="#5A6B26" font-weight="bold" text-anchor="middle">SUP</text>
<rect x="158" y="38" width="20" height="14" rx="1.5" fill="#FFFFFF" stroke="#002C6A" stroke-width="0.75"/>
<text x="168.00" y="44.80" font-family="Helvetica,Arial,sans-serif" font-size="2.95" fill="#1A1A1A" font-weight="500" text-anchor="middle">Project B</text>
<rect x="168.20" y="47.80" width="8.2" height="3.2" rx="0.7" fill="#D6E0F0"/>
<text x="172.30" y="50.10" font-family="Helvetica,Arial,sans-serif" font-size="2.2" fill="#002C6A" font-weight="bold" text-anchor="middle">CLI</text>
<rect x="158" y="74" width="20" height="14" rx="1.5" fill="#FFFFFF" stroke="#9A9A9A" stroke-width="0.6"/>
<text x="168.00" y="80.80" font-family="Helvetica,Arial,sans-serif" font-size="2.95" fill="#1A1A1A" font-weight="500" text-anchor="middle">Project C</text>
<rect x="168.20" y="83.80" width="8.2" height="3.2" rx="0.7" fill="#D6E0F0"/>
<text x="172.30" y="86.10" font-family="Helvetica,Arial,sans-serif" font-size="2.2" fill="#002C6A" font-weight="bold" text-anchor="middle">CLI</text>
<path d="M 30.00 51.00 L 34.00 51.00" fill="none" stroke="#002C6A" stroke-width="0.8" marker-end="url(#a-002C6A)" stroke-linejoin="round"/>
<path d="M 30.00 55.00 L 34.00 55.00" fill="none" stroke="#00A6D6" stroke-width="0.8" marker-end="url(#a-00A6D6)" stroke-linejoin="round"/>
<path d="M 30.00 59.00 L 34.00 59.00" fill="none" stroke="#B5741A" stroke-width="0.8" stroke-dasharray="2 1.2" marker-end="url(#a-B5741A)" stroke-linejoin="round"/>
<path d="M 60.00 51.00 L 64.00 51.00" fill="none" stroke="#002C6A" stroke-width="0.8" marker-end="url(#a-002C6A)" stroke-linejoin="round"/>
<path d="M 60.00 55.00 L 64.00 55.00" fill="none" stroke="#00A6D6" stroke-width="0.8" marker-end="url(#a-00A6D6)" stroke-linejoin="round"/>
<path d="M 60.00 59.00 L 64.00 59.00" fill="none" stroke="#B5741A" stroke-width="0.8" stroke-dasharray="2 1.2" marker-end="url(#a-B5741A)" stroke-linejoin="round"/>
<path d="M 88.00 51.00 L 104.00 51.00" fill="none" stroke="#002C6A" stroke-width="0.8" marker-end="url(#a-002C6A)" stroke-linejoin="round"/>
<text x="96.00" y="48.80" font-family="Helvetica,Arial,sans-serif" font-size="2.3" fill="#8C8C8C" font-weight="normal" text-anchor="middle">straight past</text>
<path d="M 74.00 46.00 L 74.00 34.00 L 86.00 34.00 L 86.00 27.40" fill="none" stroke="#00A6D6" stroke-width="0.8" marker-end="url(#a-00A6D6)" stroke-linejoin="round"/>
<path d="M 70.00 46.00 L 70.00 31.00 L 90.00 31.00 L 90.00 27.40" fill="none" stroke="#B5741A" stroke-width="0.8" stroke-dasharray="2 1.2" marker-end="url(#a-B5741A)" stroke-linejoin="round"/>
<path d="M 100.00 27.40 L 100.00 34.00 L 110.00 34.00 L 110.00 46.00" fill="none" stroke="#00A6D6" stroke-width="0.8" marker-end="url(#a-00A6D6)" stroke-linejoin="round"/>
<path d="M 104.00 27.40 L 104.00 31.00 L 114.00 31.00 L 114.00 46.00" fill="none" stroke="#B5741A" stroke-width="0.8" stroke-dasharray="2 1.2" marker-end="url(#a-B5741A)" stroke-linejoin="round"/>
<path d="M 126.00 51.00 L 130.00 51.00" fill="none" stroke="#002C6A" stroke-width="0.8" marker-end="url(#a-002C6A)" stroke-linejoin="round"/>
<path d="M 126.00 55.00 L 130.00 55.00" fill="none" stroke="#00A6D6" stroke-width="0.8" marker-end="url(#a-00A6D6)" stroke-linejoin="round"/>
<path d="M 126.00 59.00 L 130.00 59.00" fill="none" stroke="#B5741A" stroke-width="0.8" stroke-dasharray="2 1.2" marker-end="url(#a-B5741A)" stroke-linejoin="round"/>
<path d="M 154.00 51.00 L 156.00 51.00 L 156.00 45.00 L 158.00 45.00" fill="none" stroke="#002C6A" stroke-width="0.8" marker-end="url(#a-002C6A)" stroke-linejoin="round"/>
<path d="M 154.00 59.00 L 157.00 59.00 L 157.00 48.00 L 158.00 48.00" fill="none" stroke="#B5741A" stroke-width="0.8" stroke-dasharray="2 1.2" marker-end="url(#a-B5741A)" stroke-linejoin="round"/>
<path d="M 142.00 63.00 L 142.00 81.00 L 158.00 81.00" fill="none" stroke="#00A6D6" stroke-width="0.8" marker-end="url(#a-00A6D6)" stroke-linejoin="round"/>
<path d="M 74 36.6 L 75.4 38 L 74 39.4 L 72.6 38 Z" fill="#FFFFFF" stroke="#00A6D6" stroke-width="0.6"/>
<path d="M 70 39.6 L 71.4 41 L 70 42.4 L 68.6 41 Z" fill="#FFFFFF" stroke="#B5741A" stroke-width="0.6"/>
<text x="66.00" y="36.50" font-family="Helvetica,Arial,sans-serif" font-size="2.35" fill="#8C8C8C" font-weight="normal" text-anchor="end">sold into the market</text>
<path d="M 110 36.6 L 111.4 38 L 110 39.4 L 108.6 38 Z" fill="#FFFFFF" stroke="#00A6D6" stroke-width="0.6"/>
<path d="M 114 39.6 L 115.4 41 L 114 42.4 L 112.6 41 Z" fill="#FFFFFF" stroke="#B5741A" stroke-width="0.6"/>
<text x="118.00" y="36.50" font-family="Helvetica,Arial,sans-serif" font-size="2.35" fill="#8C8C8C" font-weight="normal" text-anchor="start">bought from the market</text>
<text x="76.00" y="70.50" font-family="Helvetica,Arial,sans-serif" font-size="2.35" fill="#8C8C8C" font-weight="normal" text-anchor="middle">donor linked: the client never sells and never buys back</text>
<rect x="8" y="90" width="164" height="0.3" fill="#D5D5D5"/>
<path d="M 8 95 L 15 95" stroke="#002C6A" stroke-width="0.9" fill="none"/>
<text x="17.00" y="96.00" font-family="Helvetica,Arial,sans-serif" font-size="2.45" fill="#595959" font-weight="normal" text-anchor="start">Donor linked  ·  never reaches the market</text>
<path d="M 64 95 L 71 95" stroke="#00A6D6" stroke-width="0.9" fill="none"/>
<text x="73.00" y="96.00" font-family="Helvetica,Arial,sans-serif" font-size="2.45" fill="#595959" font-weight="normal" text-anchor="start">Open market  ·  sold on, used elsewhere</text>
<path d="M 120 95 L 127 95" stroke="#B5741A" stroke-width="0.9" stroke-dasharray="2 1.2" fill="none"/>
<text x="129.00" y="96.00" font-family="Helvetica,Arial,sans-serif" font-size="2.45" fill="#595959" font-weight="normal" text-anchor="start">Hybrid  ·  own steel, topped up</text>
</svg>